name rise37.2698peak67.6939fall79.5734.mot
datacolumns 19
datarows 23
range 23.31991200000000 23.35657800000000
endheader
time	ground_force1_vx	ground_force1_vy	ground_force1_vz	ground_force1_px	ground_force1_py	ground_force1_pz	ground_force2_vx	ground_force2_vy	ground_force2_vz	ground_force2_px	ground_force2_py	ground_force2_pz	ground_torque1_x	ground_torque1_y	ground_torque1_z	ground_torque2_x	ground_torque2_y	ground_torque2_z	
23.31991200000000	-7.07473100000000	41.12228300000000	-10.83394900000000	0.33649300000000	0.00000000000000	0.06803300000000	-48.87637300000000	779.32338400000003	-51.16072100000000	0.14348600000000	0.00000000000000	-0.09533200000000	0.00000000000000	-7.84834000000000	0.00000000000000	0.00000000000000	-21.64731900000000	0.00000000000000	
23.32157900000000	-7.71935300000000	47.94107900000000	-12.18225900000000	0.34158500000000	0.00000000000000	0.06912100000000	-49.49591500000000	777.10295099999996	-50.85043900000000	0.14254900000000	0.00000000000000	-0.09523200000000	0.00000000000000	-8.89772100000000	0.00000000000000	0.00000000000000	-21.59199000000000	0.00000000000000	
23.32325100000000	-8.21918600000000	54.77923400000000	-13.40814600000000	0.34634200000000	0.00000000000000	0.07011300000000	-50.13357300000000	774.80439600000000	-50.52588400000000	0.14161700000000	0.00000000000000	-0.09512900000000	0.00000000000000	-9.87229000000000	0.00000000000000	0.00000000000000	-21.53853000000000	0.00000000000000	
23.32491400000000	-8.55478500000000	61.54380200000000	-14.48333300000000	0.35080500000000	0.00000000000000	0.07102400000000	-50.78900100000000	772.42478400000005	-50.18686000000000	0.14069000000000	0.00000000000000	-0.09502200000000	0.00000000000000	-10.74975700000000	0.00000000000000	0.00000000000000	-21.48690800000000	0.00000000000000	
23.32658000000000	-8.71486100000000	68.16637000000000	-15.38924200000000	0.35500800000000	0.00000000000000	0.07186300000000	-51.46177800000000	769.96106799999995	-49.83317300000000	0.13977000000000	0.00000000000000	-0.09491200000000	0.00000000000000	-11.51469600000000	0.00000000000000	0.00000000000000	-21.43707800000000	0.00000000000000	
23.32824800000000	-8.69612300000000	74.60494000000000	-16.11710300000000	0.35897900000000	0.00000000000000	0.07264100000000	-52.15140800000000	767.41009499999996	-49.46463000000000	0.13885700000000	0.00000000000000	-0.09479700000000	0.00000000000000	-12.15880400000000	0.00000000000000	0.00000000000000	-21.38897900000000	0.00000000000000	
23.32991300000000	-8.50249900000000	80.84333599999999	-16.66725300000000	0.36274000000000	0.00000000000000	0.07336600000000	-52.85731600000000	764.76861599999995	-49.08104300000000	0.13795200000000	0.00000000000000	-0.09468000000000	0.00000000000000	-12.68054000000000	0.00000000000000	0.00000000000000	-21.34253700000000	0.00000000000000	
23.33160400000000	-8.14389700000000	86.88857700000000	-17.04779600000000	0.36631200000000	0.00000000000000	0.07404400000000	-53.57884600000000	762.03329399999996	-48.68222600000000	0.13705600000000	0.00000000000000	-0.09455800000000	0.00000000000000	-13.08426300000000	0.00000000000000	0.00000000000000	-21.29766000000000	0.00000000000000	
23.33324500000000	-7.63469400000000	92.76680200000000	-17.27287100000000	0.36971000000000	0.00000000000000	0.07468100000000	-54.31526100000000	759.20071399999995	-48.26800300000000	0.13616800000000	0.00000000000000	-0.09443300000000	0.00000000000000	-13.37903400000000	0.00000000000000	0.00000000000000	-21.25424500000000	0.00000000000000	
23.33491500000000	-6.99211700000000	98.51832200000000	-17.36071000000000	0.37294800000000	0.00000000000000	0.07528100000000	-55.06574100000000	756.26739699999996	-47.83820400000000	0.13529000000000	0.00000000000000	-0.09430400000000	0.00000000000000	-13.57723400000000	0.00000000000000	0.00000000000000	-21.21216900000000	0.00000000000000	
23.33657500000000	-6.23467400000000	104.19236800000000	-17.33171400000000	0.37603800000000	0.00000000000000	0.07584800000000	-55.82938300000000	753.22980500000006	-47.39266900000000	0.13442300000000	0.00000000000000	-0.09417100000000	0.00000000000000	-13.69313900000000	0.00000000000000	0.00000000000000	-21.17129800000000	0.00000000000000	
23.33825000000000	-5.38075600000000	109.84201600000000	-17.20667400000000	0.37899000000000	0.00000000000000	0.07638600000000	-56.60519800000000	750.08435899999995	-46.93125200000000	0.13356600000000	0.00000000000000	-0.09403500000000	0.00000000000000	-13.74158900000000	0.00000000000000	0.00000000000000	-21.13148000000000	0.00000000000000	
23.33991500000000	-4.44747600000000	115.51965700000000	-17.00526800000000	0.38181200000000	0.00000000000000	0.07689800000000	-57.39211300000000	746.82744900000000	-46.45381700000000	0.13272100000000	0.00000000000000	-0.09389500000000	0.00000000000000	-13.73683500000000	0.00000000000000	0.00000000000000	-21.09255100000000	0.00000000000000	
23.34158000000000	-3.44982300000000	121.27328700000000	-16.74490500000000	0.38451300000000	0.00000000000000	0.07738600000000	-58.18896800000000	743.45544400000006	-45.96024600000000	0.13188800000000	0.00000000000000	-0.09375100000000	0.00000000000000	-13.69162300000000	0.00000000000000	0.00000000000000	-21.05432800000000	0.00000000000000	
23.34324200000000	-2.40011000000000	127.14373500000001	-16.43993800000000	0.38709700000000	0.00000000000000	0.07785300000000	-58.99451800000000	739.96471099999997	-45.45043700000000	0.13106600000000	0.00000000000000	-0.09360400000000	0.00000000000000	-13.61654900000000	0.00000000000000	0.00000000000000	-21.01661800000000	0.00000000000000	
23.34490900000000	-1.30773400000000	133.16290799999999	-16.10124800000000	0.38957200000000	0.00000000000000	0.07830100000000	-59.80743300000000	736.35162300000002	-44.92431100000000	0.13025700000000	0.00000000000000	-0.09345300000000	0.00000000000000	-13.51969600000000	0.00000000000000	0.00000000000000	-20.97920900000000	0.00000000000000	
23.34658900000000	-0.17918700000000	139.35297299999999	-15.73615800000000	0.39194100000000	0.00000000000000	0.07873000000000	-60.62629600000000	732.61257599999999	-44.38180600000000	0.12946100000000	0.00000000000000	-0.09329800000000	0.00000000000000	-13.40651900000000	0.00000000000000	0.00000000000000	-20.94188000000000	0.00000000000000	
23.34824500000000	0.98170600000000	145.72638799999999	-15.34862900000000	0.39420800000000	0.00000000000000	0.07914400000000	-61.44960800000000	728.74400400000002	-43.82288600000000	0.12867800000000	0.00000000000000	-0.09314000000000	0.00000000000000	-13.27994800000000	0.00000000000000	0.00000000000000	-20.90439100000000	0.00000000000000	
23.34991500000000	2.17340200000000	152.28661500000001	-14.93967200000000	0.39637800000000	0.00000000000000	0.07954200000000	-62.27578800000000	724.74239000000000	-43.24754000000000	0.12790800000000	0.00000000000000	-0.09297800000000	0.00000000000000	-13.14066700000000	0.00000000000000	0.00000000000000	-20.86649400000000	0.00000000000000	
23.35158800000000	3.39614700000000	159.02933500000000	-14.50790600000000	0.39845400000000	0.00000000000000	0.07992600000000	-63.10317300000000	720.60428400000001	-42.65578700000000	0.12715100000000	0.00000000000000	-0.09281200000000	0.00000000000000	-12.98751200000000	0.00000000000000	0.00000000000000	-20.82792400000000	0.00000000000000	
23.35325000000000	4.65144600000000	165.94399500000000	-14.05018300000000	0.40043700000000	0.00000000000000	0.08029700000000	-63.93002100000000	716.32631800000001	-42.04767200000000	0.12640700000000	0.00000000000000	-0.09264300000000	0.00000000000000	-12.81793300000000	0.00000000000000	0.00000000000000	-20.78840700000000	0.00000000000000	
23.35491500000000	5.94152700000000	173.01548299999999	-13.56224100000000	0.40233000000000	0.00000000000000	0.08065700000000	-64.75451600000000	711.90522299999998	-41.42327300000000	0.12567700000000	0.00000000000000	-0.09247000000000	0.00000000000000	-12.62848200000000	0.00000000000000	0.00000000000000	-20.74765700000000	0.00000000000000	
23.35657800000000	7.26885700000000	180.22581900000000	-13.03931200000000	0.40413600000000	0.00000000000000	0.08100500000000	-65.57476800000001	707.33784300000002	-40.78270200000000	0.12496000000000	0.00000000000000	-0.09229400000000	0.00000000000000	-12.41528300000000	0.00000000000000	0.00000000000000	-20.70537800000000	0.00000000000000	
